PathFileType	4	(X/Y/Z)	S1_rest_fast_right.trc
DataRate	CameraRate	NumFrames	NumMarkers	Units	OrigDataRate	OrigDataStartFrame	OrigNumFrames
250.00	250.00	13	18	mm	250.00	2702	21613
Frame#	Time	c7	r_should	l_should	clavicle	r_upa	r_elb_l	r_elb_m	r_low	r_wri_l	r_wri_m	r_met	l_upa	l_elb_l	l_elb_m	l_low	l_wri_l	l_wri_m	l_met
	X1	Y1	Z1	X2	Y2	Z2	X3	Y3	Z3	X4	Y4	Z4	X5	Y5	Z5	X6	Y6	Z6	X7	Y7	Z7	X8	Y8	Z8	X9	Y9	Z9	X10	Y10	Z10	X11	Y11	Z11	X12	Y12	Z12	X13	Y13	Z13	X14	Y14	Z14	X15	Y15	Z15	X16	Y16	Z16	X17	Y17	Z17	X18	Y18	Z18
2702	10.80400	424.43707	1416.49561	119.95415	484.20395	1360.33630	283.82999	464.42300	1364.01587	-77.60934	567.96729	1305.83545	93.52776	537.31238	1161.04175	327.80139	558.81744	1115.04053	332.23141	572.05157	1058.16541	235.95657	660.16333	1145.60010	287.26843	663.21594	1253.27026	303.70990	685.18237	1236.25720	234.85658	714.90198	1322.81165	316.45892	452.91800	1152.92200	-141.63339	460.72327	1072.51770	-158.46228	395.61261	1038.95276	-88.27608	452.66168	926.51385	-166.80070	545.03979	862.63678	-119.06378	489.85995	836.91809	-160.66570	586.72638	791.00677	-137.34900
2703	10.80800	424.51172	1416.42798	119.95426	484.21652	1360.32434	283.82376	464.40878	1364.01624	-77.61124	567.89807	1305.90137	93.39806	537.33990	1161.02405	327.79010	558.81897	1115.03064	332.20029	572.06134	1058.16602	235.91368	660.13654	1145.64783	287.22522	663.13220	1253.31396	303.68668	685.11200	1236.31982	234.82332	714.78143	1322.88928	316.43622	452.90326	1152.92908	-141.65120	460.69714	1072.52148	-158.47704	395.57834	1038.95825	-88.29206	452.62753	926.52277	-166.81099	544.99542	862.63226	-119.07111	489.82013	836.91895	-160.67900	586.66461	790.99133	-137.34689
2704	10.81200	424.53870	1416.41235	119.95412	484.22723	1360.31409	283.82065	464.39450	1364.01904	-77.61442	567.96802	1305.75940	93.62872	537.37634	1161.01697	327.77148	558.82104	1115.02356	332.16858	572.07269	1058.17102	235.87163	660.11530	1145.70056	287.18945	663.05713	1253.36316	303.65894	685.04285	1236.38464	234.79239	714.65631	1322.97290	316.40756	452.89493	1152.93140	-141.65723	460.66974	1072.53687	-158.48669	395.54605	1038.96350	-88.30765	452.59250	926.53284	-166.82521	544.95496	862.62970	-119.07301	489.77222	836.92670	-160.69533	586.61041	790.98505	-137.35306
2705	10.81600	424.55478	1416.41138	119.94292	484.22849	1360.30884	283.81302	464.38235	1364.02625	-77.61552	568.08350	1305.57227	93.95193	537.40771	1161.01599	327.74985	558.81909	1115.01697	332.13882	572.09918	1058.18433	235.83583	660.09625	1145.75842	287.15912	662.98187	1253.42053	303.63034	684.96753	1236.45422	234.76135	714.54694	1323.05786	316.38281	452.88580	1152.93542	-141.66585	460.64221	1072.55310	-158.50505	395.51712	1038.97144	-88.32626	452.55652	926.54016	-166.83304	544.91553	862.62915	-119.08415	489.72562	836.93207	-160.70390	586.56665	790.97748	-137.35583
2706	10.82000	424.52963	1416.46570	119.93214	484.22809	1360.30103	283.80066	464.38007	1364.02637	-77.61845	567.89056	1305.83765	93.48753	537.42200	1161.02515	327.72647	558.80969	1115.01282	332.11096	572.11469	1058.18152	235.81229	660.06763	1145.81238	287.12836	662.90924	1253.46863	303.59857	684.88751	1236.52844	234.72964	714.44501	1323.14368	316.36572	452.87646	1152.93713	-141.67348	460.53214	1072.62012	-158.69852	395.49265	1038.96814	-88.34550	452.51889	926.54840	-166.84521	544.87170	862.62671	-119.09863	489.68243	836.93225	-160.71024	586.52063	790.97345	-137.36172
2707	10.82400	424.45309	1416.57617	119.91828	484.22296	1360.29419	283.79083	464.37231	1364.02551	-77.62575	567.82947	1305.90002	93.36573	537.42346	1161.03088	327.70001	558.80164	1115.01318	332.08215	572.12085	1058.19275	235.77827	660.03845	1145.86731	287.10419	662.83765	1253.52161	303.57803	684.80774	1236.59851	234.70522	714.33246	1323.22473	316.35291	452.86249	1152.93640	-141.68700	460.39114	1072.70386	-158.94189	395.45804	1038.97925	-88.36335	452.47977	926.55103	-166.86020	544.82880	862.62445	-119.11456	489.63965	836.92731	-160.72548	586.47235	790.96881	-137.37106
2708	10.82800	424.44537	1416.60925	119.90424	484.21448	1360.28931	283.77438	464.36850	1364.02637	-77.63526	567.83020	1305.86426	93.38045	537.42572	1161.04297	327.67960	558.79175	1115.01660	332.05521	572.13794	1058.19702	235.75621	660.01514	1145.92896	287.08917	662.76813	1253.57727	303.55478	684.72412	1236.66870	234.68584	714.21490	1323.29565	316.32932	452.84546	1152.94031	-141.70177	460.42490	1072.66309	-158.83495	395.42026	1038.98584	-88.37681	452.43970	926.55219	-166.87930	544.78351	862.61975	-119.13334	489.59164	836.92804	-160.73540	586.42059	790.96210	-137.39323
2709	10.83200	424.45227	1416.62329	119.88335	484.19617	1360.29187	283.75192	464.36972	1364.02832	-77.65697	567.84155	1305.80408	93.42339	537.41779	1161.05457	327.66653	558.77869	1115.03052	332.03329	572.15863	1058.20959	235.73090	659.98291	1145.98315	287.07190	662.70367	1253.63525	303.52985	684.64581	1236.73706	234.66611	714.10547	1323.37292	316.29947	452.82596	1152.93933	-141.71045	460.21832	1072.78601	-159.18529	395.38229	1038.99402	-88.39964	452.39664	926.55157	-166.89975	544.73499	862.61859	-119.15652	489.53296	836.92255	-160.75253	586.37213	790.95850	-137.42172
2710	10.83600	424.49319	1416.58899	119.85893	484.17245	1360.30054	283.73325	464.37497	1364.02637	-77.68071	567.87439	1305.72449	93.59187	537.41492	1161.06274	327.65161	558.77344	1115.05420	332.02399	572.17163	1058.23828	235.72075	659.95746	1146.04407	287.05579	662.64288	1253.69788	303.51370	684.57861	1236.80774	234.64644	714.00134	1323.46228	316.28046	452.80847	1152.94409	-141.72475	460.23346	1072.75647	-159.11331	395.34161	1038.99756	-88.41592	452.34665	926.54993	-166.92128	544.68506	862.62286	-119.18169	489.46826	836.91327	-160.77322	586.32275	790.95673	-137.44853
2711	10.84000	424.57666	1416.49646	119.83366	484.13956	1360.31201	283.71365	464.38229	1364.02063	-77.69955	568.07782	1305.37622	94.15636	537.41016	1161.09338	327.64316	558.77240	1115.07764	332.01508	572.18085	1058.26050	235.71468	659.93463	1146.11060	287.05359	662.58075	1253.76477	303.50293	684.51898	1236.88159	234.63318	713.89581	1323.54993	316.24890	452.78085	1152.95239	-141.74512	460.39062	1072.62061	-158.75438	395.30576	1039.00745	-88.43024	452.29919	926.55072	-166.94174	544.63123	862.63007	-119.20747	489.40991	836.91309	-160.79518	586.26990	790.95422	-137.47653
2712	10.84400	424.60049	1416.47864	119.80336	484.10004	1360.32227	283.69510	464.38983	1364.01831	-77.72061	567.99939	1305.44873	94.02618	537.39429	1161.12561	327.64215	558.77039	1115.10706	332.00790	572.19788	1058.27319	235.71294	659.90399	1146.18591	287.06042	662.51562	1253.83752	303.50073	684.45984	1236.95227	234.62476	713.78308	1323.64172	316.21884	452.75818	1152.95154	-141.76515	460.39597	1072.58594	-158.68027	395.26663	1039.01624	-88.44489	452.24997	926.55383	-166.96014	544.57483	862.63306	-119.23264	489.35095	836.91339	-160.80618	586.21582	790.94818	-137.51328
2713	10.84800	424.60696	1416.48608	119.77078	484.05716	1360.33313	283.67642	464.39160	1364.02026	-77.73869	567.74976	1305.79114	93.46213	537.38202	1161.15454	327.65408	558.77277	1115.14417	332.00723	572.23553	1058.30298	235.71896	659.88324	1146.25647	287.06955	662.45325	1253.90613	303.50272	684.40582	1237.02515	234.61971	713.68207	1323.72363	316.20358	452.73181	1152.94385	-141.77577	460.27710	1072.63708	-158.84647	395.22668	1039.02246	-88.45680	452.19415	926.55634	-166.97705	544.52386	862.63300	-119.25616	489.29141	836.90918	-160.82132	586.15808	790.94568	-137.54367
2714	10.85200	424.57217	1416.54089	119.73748	484.01279	1360.33740	283.65625	464.40417	1364.01648	-77.76020	567.77490	1305.71167	93.57990	537.36359	1161.18323	327.66287	558.77081	1115.18689	332.01788	572.27026	1058.34595	235.69804	659.86755	1146.32581	287.07739	662.38892	1253.98083	303.50302	684.35614	1237.09253	234.61714	713.59558	1323.81030	316.19720	452.70465	1152.93628	-141.79041	460.12854	1072.71619	-159.07875	395.18652	1039.03235	-88.47093	452.14075	926.55780	-166.99492	544.47247	862.63123	-119.28304	489.23923	836.90228	-160.83459	586.10370	790.94098	-137.58197
